<svg width="546" height="470" viewBox="0 0 546 470" fill="none" xmlns="http://www.w3.org/2000/svg">
<g clip-path="url(#clip0_23_1161)">
<path d="M0 465.24C0 465.926 0.55158 466.477 1.23844 466.477H544.762C545.448 466.477 546 465.926 546 465.24C546 464.554 545.448 464.003 544.762 464.003H1.23844C0.551573 464.003 0 464.554 0 465.24Z" fill="#3F3C57"/>
<path d="M177.336 49.9492L183.247 76.8896L170.674 114.388L150.419 74.099L153.23 50.7257L177.336 49.9492Z" fill="#FDB4B4"/>
<path d="M184.345 75.4941H149.372V117.702H184.345V75.4941Z" fill="#027CC0"/>
<path d="M169.963 63.5196C183.154 63.5196 193.847 52.8387 193.847 39.6631C193.847 26.4876 183.154 15.8066 169.963 15.8066C156.772 15.8066 146.079 26.4876 146.079 39.6631C146.079 52.8387 156.772 63.5196 169.963 63.5196Z" fill="#FDB4B4"/>
<path d="M149.173 57.4027C149.173 57.4027 131.37 24.561 147.422 8.7568C163.473 -7.04745 176.359 3.36656 176.359 3.36656L183.717 3.06953C183.717 3.06953 185.252 8.85357 187.726 5.72242C190.201 2.59128 194.672 13.9945 194.672 13.9945C202.972 28.924 174.201 32.2685 174.201 32.2685C174.201 32.2685 176.278 38.8788 174.167 40.2632C172.055 41.6475 166.413 46.8552 166.413 46.8552L161.363 50.6649L158.362 46.0976C158.362 46.0976 155.227 43.6259 153.643 44.6642C152.06 45.7025 154.238 59.3635 154.238 59.3635L149.173 57.4027Z" fill="#2E2E41"/>
<path d="M120.521 299.013L111.39 435.067L133.838 435.828L163.515 300.153L120.521 299.013Z" fill="#2E2E41"/>
<path d="M174.929 298.253L165.798 434.308L188.246 435.068L217.923 299.394L174.929 298.253Z" fill="#2E2E41"/>
<path d="M115.022 330.098L126.973 181.916L108.646 104.754C107.067 93.2835 114.302 82.4303 125.469 79.4709L143.401 74.7189L151.339 66.7905L169.392 106.612L180.667 66.8209L189.461 73.2088L215.541 84.7016L215.529 84.9707L211.345 178.182L220.683 328.779L220.269 328.784L115.022 330.098Z" fill="#E8E9EA"/>
<path d="M186.805 433.521L193.305 452.903C193.305 452.903 218.734 456.357 219.13 464.22C219.525 472.084 184.57 467.532 164.101 468.559C143.633 469.587 160.671 447.447 160.671 447.447L162.853 434.724L186.805 433.521Z" fill="#2E2E41"/>
<path d="M133.723 432.126L140.222 451.508C140.222 451.508 165.652 454.962 166.047 462.825C166.443 470.689 131.488 466.137 111.019 467.164C90.5507 468.192 107.589 446.052 107.589 446.052L109.77 433.329L133.723 432.126Z" fill="#2E2E41"/>
<path d="M102.01 251.4C101.735 247.578 102.379 243.746 103.891 240.225L99.0396 200.476L118.043 198.723L120.917 239.233C122.827 242.554 123.912 246.284 124.083 250.11C124.642 259.682 120.154 267.725 114.058 268.081C107.962 268.436 102.568 260.968 102.01 251.4Z" fill="#FDB4B4"/>
<path d="M222.372 257.234C222.138 253.41 222.824 249.585 224.374 246.081L219.957 206.281L238.978 204.735L241.41 245.274C243.284 248.616 244.328 252.357 244.457 256.185C244.912 265.762 240.336 273.756 234.237 274.045C228.137 274.334 222.825 266.808 222.372 257.234Z" fill="#FDB4B4"/>
<path d="M98.9615 235.459L98.8972 235.116L88.9934 182.038L100.696 95.6065C101.74 87.89 108.638 82.3314 116.417 82.9526C120.48 83.2775 124.124 85.202 126.681 88.3725C129.238 91.543 130.344 95.5104 129.796 99.5443L120.988 164.367L126.533 233.701L98.9615 235.459Z" fill="#E8E9EA"/>
<path d="M216.502 234.213L196.59 101.452C195.555 97.5594 196.161 93.4854 198.305 90.0236C200.449 86.5617 203.827 84.2012 207.819 83.3766C215.454 81.7992 222.994 86.4613 224.987 93.9887L244.116 232.546L216.502 234.213Z" fill="#E8E9EA"/>
<path d="M169.976 118.748C171.326 118.748 172.421 117.655 172.421 116.306C172.421 114.958 171.326 113.865 169.976 113.865C168.626 113.865 167.531 114.958 167.531 116.306C167.531 117.655 168.626 118.748 169.976 118.748Z" fill="#D6D7D8"/>
<path d="M169.976 137.236C171.326 137.236 172.421 136.142 172.421 134.794C172.421 133.445 171.326 132.352 169.976 132.352C168.626 132.352 167.531 133.445 167.531 134.794C167.531 136.142 168.626 137.236 169.976 137.236Z" fill="#D6D7D8"/>
<path d="M169.976 155.723C171.326 155.723 172.421 154.63 172.421 153.282C172.421 151.933 171.326 150.84 169.976 150.84C168.626 150.84 167.531 151.933 167.531 153.282C167.531 154.63 168.626 155.723 169.976 155.723Z" fill="#D6D7D8"/>
<path d="M169.976 174.211C171.326 174.211 172.421 173.118 172.421 171.769C172.421 170.421 171.326 169.328 169.976 169.328C168.626 169.328 167.531 170.421 167.531 171.769C167.531 173.118 168.626 174.211 169.976 174.211Z" fill="#D6D7D8"/>
<path d="M169.976 192.698C171.326 192.698 172.421 191.605 172.421 190.257C172.421 188.908 171.326 187.815 169.976 187.815C168.626 187.815 167.531 188.908 167.531 190.257C167.531 191.605 168.626 192.698 169.976 192.698Z" fill="#D6D7D8"/>
<path d="M169.976 211.186C171.326 211.186 172.421 210.093 172.421 208.744C172.421 207.396 171.326 206.303 169.976 206.303C168.626 206.303 167.531 207.396 167.531 208.744C167.531 210.093 168.626 211.186 169.976 211.186Z" fill="#D6D7D8"/>
<path d="M169.976 229.674C171.326 229.674 172.421 228.58 172.421 227.232C172.421 225.883 171.326 224.79 169.976 224.79C168.626 224.79 167.531 225.883 167.531 227.232C167.531 228.58 168.626 229.674 169.976 229.674Z" fill="#D6D7D8"/>
<path d="M169.976 248.161C171.326 248.161 172.421 247.068 172.421 245.72C172.421 244.371 171.326 243.278 169.976 243.278C168.626 243.278 167.531 244.371 167.531 245.72C167.531 247.068 168.626 248.161 169.976 248.161Z" fill="#D6D7D8"/>
<path d="M169.979 262.462L123.725 256.306L122.834 256.187L99.1947 201.743L85.1167 169.329H121.786L169.979 262.462Z" fill="#027CC0"/>
<path d="M355.433 55.8727L384.84 39.7812V85.7569H350.83L355.433 55.8727Z" fill="#2E2E41"/>
<path d="M391.145 66.1228L393.859 88.6942L374.299 127.601L362.158 91.389L367.866 65.373L391.145 66.1228Z" fill="#FDB4B4"/>
<path d="M394.871 90.0415H361.098V130.801H394.871V90.0415Z" fill="#027CC0"/>
<path d="M422.732 305.891L431.55 437.277L409.872 438.011L381.213 306.992L422.732 305.891Z" fill="#2E2E41"/>
<path d="M370.19 305.157L379.008 436.543L357.33 437.277L328.671 306.258L370.19 305.157Z" fill="#2E2E41"/>
<path d="M445.634 333.757L445.118 333.756L307.019 333.305L307.143 332.817L342.648 192.308L333.754 121.398C332.069 107.962 339.27 95.2614 351.674 89.7958L356.151 87.8229L364.658 81.6438L375.54 120.053L392.967 81.6138L400.644 89.2807L417.957 93.869C428.748 96.7284 435.739 107.216 434.219 118.263L434.2 118.34L407.761 193.695L445.634 333.757Z" fill="#E8E9EA"/>
<path d="M358.722 435.784L381.853 436.945L383.959 449.231C383.959 449.231 400.413 470.612 380.647 469.619C360.881 468.627 327.125 473.023 327.507 465.429C327.889 457.835 352.446 454.501 352.446 454.501L358.722 435.784Z" fill="#2E2E41"/>
<path d="M409.983 434.437L433.113 435.598L435.22 447.884C435.22 447.884 451.673 469.264 431.907 468.272C412.141 467.28 378.385 471.675 378.767 464.082C379.149 456.488 403.706 453.153 403.706 453.153L409.983 434.437Z" fill="#2E2E41"/>
<path d="M431.164 258.564C430.626 267.803 425.417 275.016 419.53 274.672C413.643 274.329 409.309 266.562 409.849 257.319C410.014 253.624 411.062 250.022 412.906 246.815L415.682 207.695L434.033 209.387L429.348 247.773C430.808 251.173 431.43 254.874 431.164 258.564Z" fill="#FDB4B4"/>
<path d="M336.86 255.05C336.125 264.277 330.763 271.376 324.885 270.908C319.007 270.44 314.839 262.582 315.576 253.353C315.819 249.662 316.944 246.083 318.857 242.916L322.465 203.864L340.776 205.946L335.274 244.223C336.661 247.654 337.205 251.367 336.86 255.05Z" fill="#FDB4B4"/>
<path d="M434.12 243.184L407.468 241.485L407.5 241.086L412.824 174.518L404.32 111.921C403.789 108.022 404.858 104.187 407.329 101.123C409.8 98.0579 413.324 96.1976 417.251 95.8835C424.77 95.2914 431.437 100.656 432.447 108.115L443.748 191.583L443.736 191.645L434.12 243.184Z" fill="#E8E9EA"/>
<path d="M341.297 240.634L314.603 239.022L314.662 238.601L333.069 105.25C335.005 97.9261 342.296 93.4212 349.674 94.9452C353.532 95.7421 356.797 98.0238 358.869 101.37C360.942 104.717 361.527 108.654 360.518 112.458L341.297 240.634Z" fill="#E8E9EA"/>
<path d="M374.973 131.811C376.277 131.811 377.334 130.755 377.334 129.453C377.334 128.151 376.277 127.095 374.973 127.095C373.67 127.095 372.613 128.151 372.613 129.453C372.613 130.755 373.67 131.811 374.973 131.811Z" fill="#D6D7D8"/>
<path d="M374.973 149.665C376.277 149.665 377.334 148.609 377.334 147.307C377.334 146.004 376.277 144.949 374.973 144.949C373.67 144.949 372.613 146.004 372.613 147.307C372.613 148.609 373.67 149.665 374.973 149.665Z" fill="#D6D7D8"/>
<path d="M374.973 167.518C376.277 167.518 377.334 166.462 377.334 165.16C377.334 163.857 376.277 162.802 374.973 162.802C373.67 162.802 372.613 163.857 372.613 165.16C372.613 166.462 373.67 167.518 374.973 167.518Z" fill="#D6D7D8"/>
<path d="M374.973 185.371C376.277 185.371 377.334 184.315 377.334 183.013C377.334 181.71 376.277 180.655 374.973 180.655C373.67 180.655 372.613 181.71 372.613 183.013C372.613 184.315 373.67 185.371 374.973 185.371Z" fill="#D6D7D8"/>
<path d="M374.973 203.224C376.277 203.224 377.334 202.169 377.334 200.866C377.334 199.564 376.277 198.508 374.973 198.508C373.67 198.508 372.613 199.564 372.613 200.866C372.613 202.169 373.67 203.224 374.973 203.224Z" fill="#D6D7D8"/>
<path d="M374.973 221.077C376.277 221.077 377.334 220.022 377.334 218.719C377.334 217.417 376.277 216.361 374.973 216.361C373.67 216.361 372.613 217.417 372.613 218.719C372.613 220.022 373.67 221.077 374.973 221.077Z" fill="#D6D7D8"/>
<path d="M374.973 238.931C376.277 238.931 377.334 237.875 377.334 236.573C377.334 235.271 376.277 234.215 374.973 234.215C373.67 234.215 372.613 235.271 372.613 236.573C372.613 237.875 373.67 238.931 374.973 238.931Z" fill="#D6D7D8"/>
<path d="M374.973 256.784C376.277 256.784 377.334 255.728 377.334 254.426C377.334 253.124 376.277 252.068 374.973 252.068C373.67 252.068 372.613 253.124 372.613 254.426C372.613 255.728 373.67 256.784 374.973 256.784Z" fill="#D6D7D8"/>
<path d="M378.557 77.6423C390.752 77.6423 400.638 67.7678 400.638 55.587C400.638 43.4062 390.752 33.5317 378.557 33.5317C366.362 33.5317 356.477 43.4062 356.477 55.587C356.477 67.7678 366.362 77.6423 378.557 77.6423Z" fill="#FDB4B4"/>
<path d="M390.129 29.8402C391.187 31.9897 389.509 34.6746 387.288 35.5783C385.067 36.482 382.559 36.1158 380.19 35.7396C377.822 35.3635 375.31 35.0068 373.096 35.9265C370.231 37.1164 368.616 40.1015 367.224 42.8715C364.626 48.0427 362.028 53.2139 359.431 58.385C358.161 60.9116 356.863 63.5517 356.839 66.3784C356.794 71.567 360.915 75.7135 363.132 80.406C365.831 86.1193 365.609 93.1209 362.552 98.6516C359.495 104.182 353.682 108.101 347.403 108.863C345.751 109.064 344.002 109.042 342.517 108.292C341.032 107.543 339.898 105.906 340.173 104.266C340.711 101.06 345.616 100.311 346.517 97.1866C346.988 95.5558 346.155 93.8142 345.032 92.5404C343.909 91.2666 342.489 90.2729 341.418 88.9553C338.949 85.9172 338.784 81.2271 341.035 78.0238C342.357 76.1412 344.403 74.7425 345.258 72.6069C345.987 70.7867 345.722 68.7406 345.446 66.7998C345.091 64.3058 344.737 61.8119 344.382 59.3179C343.969 56.4082 343.561 53.3942 344.379 50.571C346.252 44.1014 353.566 41.063 357.855 35.8663C359.848 33.4515 361.188 30.5472 363.233 28.1759C366.664 24.1964 372.066 22.0011 377.304 22.4574C382.542 22.9138 387.482 26.0101 390.172 30.5228" fill="#2E2E41"/>
<path d="M386.643 30.248C385.564 30.6334 385.164 32.0368 385.474 33.1384C385.785 34.2399 386.598 35.1151 387.342 35.9851C395.76 45.8249 397.716 60.7085 392.127 72.3854C390.641 75.4913 388.66 78.4143 387.858 81.7625C387.275 84.1987 387.306 86.871 385.953 88.9801C384.576 91.1273 381.846 92.566 381.576 95.102C381.403 96.7294 382.396 98.3102 383.727 99.2643C385.058 100.218 386.684 100.655 388.284 101.011C392.44 101.936 396.691 102.441 400.949 102.516C402.337 102.54 403.769 102.51 405.043 101.958C406.316 101.405 407.403 100.207 407.418 98.8205C407.429 97.7306 406.8 96.7252 406.719 95.6382C406.479 92.3811 410.867 90.6484 411.722 87.496C412.284 85.4236 411.176 83.2909 409.997 81.4959C408.817 79.701 407.471 77.8161 407.5 75.6691C407.528 73.6138 408.819 71.8037 409.321 69.8103C410.015 67.0529 409.162 64.1687 408.316 61.4539C407.597 59.1459 406.878 56.8379 406.159 54.5298C405.395 52.0763 404.63 49.6228 403.866 47.1692C402.531 42.8859 401.13 38.4784 398.242 35.0429C395.354 31.6075 390.568 29.3558 386.302 30.7584" fill="#2E2E41"/>
<path d="M401.689 115.713L400.176 115.272C403.329 104.473 396.53 84.3218 396.462 84.1196L397.953 83.6113C398.242 84.4567 404.981 104.441 401.689 115.713Z" fill="#3F3C57"/>
<path d="M400.932 128.116C404.569 128.116 407.518 125.171 407.518 121.538C407.518 117.906 404.569 114.961 400.932 114.961C397.296 114.961 394.347 117.906 394.347 121.538C394.347 125.171 397.296 128.116 400.932 128.116Z" fill="#3F3C57"/>
<path d="M357.665 144.825H353.671C353.235 144.825 352.883 144.472 352.883 144.037C352.883 143.603 353.235 143.25 353.671 143.25H357.665C358.765 143.25 359.799 142.822 360.577 142.044C361.353 141.266 361.781 140.232 361.778 139.133L361.73 114.563C361.73 109.226 357.384 104.885 352.041 104.885C346.699 104.885 342.352 109.226 342.352 114.562L342.401 137.56C342.405 139.803 344.237 141.642 346.483 141.66L349.224 141.68C349.659 141.684 350.009 142.039 350.006 142.474C350.003 142.906 349.651 143.255 349.218 143.255H349.212L346.471 143.234C343.364 143.21 340.831 140.666 340.824 137.563L340.776 114.563C340.776 108.358 345.829 103.31 352.041 103.31C358.253 103.31 363.306 108.358 363.306 114.562L363.355 139.13C363.358 140.65 362.767 142.08 361.692 143.156C360.617 144.232 359.186 144.825 357.665 144.825Z" fill="#3F3C57"/>
<path d="M349.218 145.258C350.761 145.258 352.012 144.009 352.012 142.468C352.012 140.927 350.761 139.677 349.218 139.677C347.675 139.677 346.424 140.927 346.424 142.468C346.424 144.009 347.675 145.258 349.218 145.258Z" fill="#3F3C57"/>
<path d="M353.671 146.828C355.214 146.828 356.465 145.579 356.465 144.038C356.465 142.496 355.214 141.247 353.671 141.247C352.128 141.247 350.877 142.496 350.877 144.038C350.877 145.579 352.128 146.828 353.671 146.828Z" fill="#3F3C57"/>
<path d="M192.387 103.91L190.874 103.47C194.027 92.6713 187.305 72.2076 187.236 72.0054L189.128 73.4297C189.417 74.2751 195.679 92.639 192.387 103.91Z" fill="#3F3C57"/>
<path d="M139.189 105.829L140.702 105.389C137.549 94.5902 144.348 74.4385 144.416 74.2363L142.798 75.3195C142.509 76.1649 135.897 94.5579 139.189 105.829Z" fill="#3F3C57"/>
<path d="M191.631 116.314C195.268 116.314 198.216 113.369 198.216 109.737C198.216 106.104 195.268 103.159 191.631 103.159C187.994 103.159 185.046 106.104 185.046 109.737C185.046 113.369 187.994 116.314 191.631 116.314Z" fill="#3F3C57"/>
<path d="M146.209 146.278H142.216C141.78 146.278 141.427 145.926 141.427 145.491C141.427 145.056 141.78 144.704 142.216 144.704H146.209C147.31 144.704 148.344 144.275 149.121 143.497C149.898 142.72 150.325 141.686 150.323 140.587L150.274 116.017C150.274 110.679 145.928 106.338 140.586 106.338C135.244 106.338 130.897 110.679 130.897 116.015L130.946 139.013C130.95 141.257 132.781 143.096 135.028 143.113L137.769 143.134C138.204 143.137 138.554 143.492 138.551 143.927C138.548 144.36 138.195 144.709 137.763 144.709H137.756L135.015 144.688C131.909 144.664 129.375 142.119 129.369 139.016L129.321 116.017C129.321 109.811 134.374 104.764 140.586 104.764C146.797 104.764 151.851 109.811 151.851 116.015L151.899 140.584C151.902 142.104 151.312 143.534 150.237 144.609C149.162 145.685 147.731 146.278 146.209 146.278Z" fill="#3F3C57"/>
<path d="M137.763 146.712C139.306 146.712 140.557 145.462 140.557 143.921C140.557 142.38 139.306 141.13 137.763 141.13C136.22 141.13 134.969 142.38 134.969 143.921C134.969 145.462 136.22 146.712 137.763 146.712Z" fill="#3F3C57"/>
<path d="M142.215 148.281C143.758 148.281 145.009 147.032 145.009 145.491C145.009 143.95 143.758 142.7 142.215 142.7C140.672 142.7 139.422 143.95 139.422 145.491C139.422 147.032 140.672 148.281 142.215 148.281Z" fill="#3F3C57"/>
</g>
<defs>
<clipPath id="clip0_23_1161">
<rect width="546" height="470" fill="white"/>
</clipPath>
</defs>
</svg>
