<svg width="18" height="17" viewBox="0 0 18 17" fill="none" xmlns="http://www.w3.org/2000/svg">
<path fill-rule="evenodd" clip-rule="evenodd" d="M3.26273 16.2225L1.26291 16.2489C0.712956 16.2561 0.257065 15.8121 0.24982 15.2621L0.0653807 1.26335C0.0581349 0.713399 0.502168 0.25751 1.05212 0.250264L3.05195 0.223916C3.6019 0.21667 4.05779 0.660703 4.06503 1.21066C4.07228 1.76061 3.62825 2.2165 3.07829 2.22374L2.07838 2.23692L2.23647 14.2359L3.23639 14.2227C3.78634 14.2155 4.24223 14.6595 4.24947 15.2094C4.25672 15.7594 3.81269 16.2153 3.26273 16.2225ZM9.8202 12.9355C9.3806 13.2723 8.75447 13.1905 8.41768 12.7539L5.36525 8.79378C5.10071 8.45124 5.08647 7.97739 5.33177 7.61912L8.09283 3.5824C8.28416 3.30285 8.59119 3.15079 8.90616 3.14664C9.10414 3.14404 9.3059 3.20038 9.48251 3.32107C9.93866 3.63309 10.0559 4.25559 9.74385 4.71174L8.05817 7.17617C8.07162 7.17464 8.08423 7.17071 8.09676 7.1668C8.11214 7.16201 8.1274 7.15725 8.14393 7.15703L16.1432 7.05164C16.6952 7.04437 17.149 7.48643 17.1563 8.03838C17.1636 8.59133 16.7215 9.0442 16.1696 9.05147L8.17028 9.15686L8.16927 9.15687L10.0018 11.5339C10.3385 11.9705 10.2578 12.5987 9.8202 12.9355Z" fill="#F12020"/>
</svg>
