<svg width="16" height="16" viewBox="0 0 16 16" fill="none" xmlns="http://www.w3.org/2000/svg">
<path fill-rule="evenodd" clip-rule="evenodd" d="M12.0557 6.64153L9.35965 3.94553L11.2717 2.03453L13.9657 4.72853L12.0557 6.64153ZM5.07865 13.6245L2.10265 13.8955L2.36665 10.9395L7.94565 5.35953L10.6417 8.05553L5.07865 13.6245ZM15.4027 3.33653L12.6627 0.597531C11.8957 -0.170469 10.6767 -0.198469 9.94865 0.529531L7.94565 2.53153L6.70665 1.29253C6.31665 0.902531 5.68365 0.902531 5.29265 1.29253C4.90265 1.68353 4.90265 2.31653 5.29265 2.70653L6.53165 3.94553L0.951652 9.52553C0.626652 9.85053 0.424652 10.2825 0.382652 10.7395L0.00365188 14.9095C-0.0223481 15.2045 0.0826519 15.4965 0.292652 15.7065C0.481652 15.8955 0.736652 15.9995 0.999652 15.9995C1.03065 15.9995 1.06065 15.9985 1.09065 15.9955L5.26065 15.6175C5.71765 15.5755 6.14965 15.3725 6.47465 15.0475L12.0547 9.46853L13.2927 10.7065C13.4887 10.9025 13.7437 10.9995 13.9997 10.9995C14.2557 10.9995 14.5117 10.9025 14.7067 10.7065C15.0977 10.3165 15.0977 9.68353 14.7067 9.29253L13.4687 8.05453L15.4707 6.05153C16.2007 5.32253 16.1697 4.10453 15.4027 3.33653Z" fill="black"/>
</svg>
