<svg width="30" height="27" viewBox="0 0 30 27" fill="none" xmlns="http://www.w3.org/2000/svg">
<path fill-rule="evenodd" clip-rule="evenodd" d="M13.5 24C12.672 24 12 23.328 12 22.5C12 21.672 12.672 21 13.5 21C14.328 21 15 21.672 15 22.5C15 23.328 14.328 24 13.5 24ZM28.5 21H17.7225C17.1015 19.2585 15.453 18 13.5 18C11.547 18 9.8985 19.2585 9.2775 21H1.5C0.6705 21 0 21.6705 0 22.5C0 23.3295 0.6705 24 1.5 24H9.2775C9.8985 25.7415 11.547 27 13.5 27C15.453 27 17.1015 25.7415 17.7225 24H28.5C29.3295 24 30 23.3295 30 22.5C30 21.6705 29.3295 21 28.5 21ZM25.5 15C24.672 15 24 14.328 24 13.5C24 12.672 24.672 12 25.5 12C26.328 12 27 12.672 27 13.5C27 14.328 26.328 15 25.5 15ZM25.5 9C23.547 9 21.8985 10.2585 21.2775 12H1.5C0.6705 12 0 12.6705 0 13.5C0 14.3295 0.6705 15 1.5 15H21.2775C21.8985 16.7415 23.547 18 25.5 18C27.981 18 30 15.981 30 13.5C30 11.019 27.981 9 25.5 9ZM7.5 3C8.328 3 9 3.672 9 4.5C9 5.328 8.328 6 7.5 6C6.672 6 6 5.328 6 4.5C6 3.672 6.672 3 7.5 3ZM1.5 6H3.2775C3.8985 7.7415 5.547 9 7.5 9C9.453 9 11.1015 7.7415 11.7225 6H28.5C29.3295 6 30 5.3295 30 4.5C30 3.6705 29.3295 3 28.5 3H11.7225C11.1015 1.2585 9.453 0 7.5 0C5.547 0 3.8985 1.2585 3.2775 3H1.5C0.6705 3 0 3.6705 0 4.5C0 5.3295 0.6705 6 1.5 6Z" fill="#027CC0"/>
</svg>
