<svg width="18" height="16" viewBox="0 0 18 16" fill="none" xmlns="http://www.w3.org/2000/svg">
<path d="M4.60588 12.9497C5.75112 14.095 7.25805 14.8076 8.86988 14.9663C10.4817 15.125 12.0987 14.7198 13.4452 13.8199C14.7918 12.9199 15.7846 11.5809 16.2546 10.0309C16.7245 8.48097 16.6423 6.81603 16.0222 5.31983C15.4021 3.82363 14.2823 2.58877 12.8538 1.82567C11.4252 1.06257 9.77618 0.81847 8.18779 1.13496C6.5994 1.45145 5.1699 2.30894 4.1429 3.56131C3.1159 4.81369 2.55496 6.38343 2.55566 8.00305V9.55549" stroke="#027CC0" stroke-width="2" stroke-linecap="round" stroke-linejoin="round"/>
<path d="M1 8.00027L2.55555 9.55582L4.11111 8.00027M8.77777 4.88916V8.77804H12.6666" stroke="#027CC0" stroke-width="2" stroke-linecap="round" stroke-linejoin="round"/>
</svg>
