<svg width="25" height="19" viewBox="0 0 25 19" fill="none" xmlns="http://www.w3.org/2000/svg">
<path fill-rule="evenodd" clip-rule="evenodd" d="M12.7935 5.75C10.3657 5.75 8.3976 7.42893 8.3976 9.5C8.3976 11.5711 10.3657 13.25 12.7935 13.25C15.2212 13.25 17.1893 11.5711 17.1893 9.5C17.1893 7.42893 15.2212 5.75 12.7935 5.75ZM10.1559 9.5C10.1559 8.25736 11.3368 7.25 12.7935 7.25C14.2501 7.25 15.431 8.25736 15.431 9.5C15.431 10.7426 14.2501 11.75 12.7935 11.75C11.3368 11.75 10.1559 10.7426 10.1559 9.5Z" fill="#D0D0D0"/>
<path fill-rule="evenodd" clip-rule="evenodd" d="M12.7935 0.75C10.2838 0.75 8.01456 1.80899 6.17238 3.09572C4.32014 4.38946 2.8056 5.97865 1.78787 7.18801L1.70393 7.28759C1.09125 8.01384 0.586914 8.61166 0.586914 9.5C0.586914 10.3883 1.09125 10.9862 1.70393 11.7124L1.78787 11.812C2.8056 13.0214 4.32014 14.6105 6.17238 15.9043C8.01456 17.191 10.2838 18.25 12.7935 18.25C15.3032 18.25 17.5724 17.191 19.4145 15.9043C21.2668 14.6105 22.7813 13.0214 23.7991 11.812L23.883 11.7124C24.4957 10.9862 25 10.3883 25 9.5C25 8.61166 24.4957 8.01384 23.883 7.28759L23.7991 7.18801C22.7813 5.97865 21.2668 4.38946 19.4145 3.09572C17.5724 1.80899 15.3032 0.75 12.7935 0.75ZM3.21625 8.06278C4.18834 6.90765 5.60004 5.43414 7.28632 4.25631C8.98265 3.07146 10.8642 2.25 12.7935 2.25C14.7227 2.25 16.6043 3.07146 18.3006 4.25631C19.9869 5.43414 21.3986 6.90765 22.3707 8.06278C23.1021 8.93194 23.2417 9.14148 23.2417 9.5C23.2417 9.85852 23.1021 10.0681 22.3707 10.9372C21.3986 12.0923 19.9869 13.5659 18.3006 14.7437C16.6043 15.9285 14.7227 16.75 12.7935 16.75C10.8642 16.75 8.98265 15.9285 7.28632 14.7437C5.60004 13.5659 4.18834 12.0923 3.21625 10.9372C2.48482 10.0681 2.34526 9.85852 2.34526 9.5C2.34526 9.14148 2.48482 8.93194 3.21625 8.06278Z" fill="#D0D0D0"/>
</svg>
