<svg width="15" height="20" viewBox="0 0 15 20" fill="none" xmlns="http://www.w3.org/2000/svg">
<path fill-rule="evenodd" clip-rule="evenodd" d="M14.7912 18.8889C14.7912 19.5022 14.3257 20 13.7499 20C13.1741 20 12.7086 19.5022 12.7086 18.8889C12.7086 15.8256 10.3729 13.3333 7.50205 13.3333C4.63116 13.3333 2.29551 15.8256 2.29551 18.8889C2.29551 19.5022 1.83004 20 1.2542 20C0.678355 20 0.212891 19.5022 0.212891 18.8889C0.212891 14.6 3.48364 11.1111 7.50205 11.1111C11.5205 11.1111 14.7912 14.6 14.7912 18.8889M7.50205 2.22222C8.65061 2.22222 9.58466 3.21889 9.58466 4.44444C9.58466 5.67 8.65061 6.66667 7.50205 6.66667C6.35348 6.66667 5.41943 5.67 5.41943 4.44444C5.41943 3.21889 6.35348 2.22222 7.50205 2.22222M7.50205 8.88889C9.79917 8.88889 11.6673 6.89556 11.6673 4.44444C11.6673 1.99333 9.79917 0 7.50205 0C5.20492 0 3.33681 1.99333 3.33681 4.44444C3.33681 6.89556 5.20492 8.88889 7.50205 8.88889" fill="#027CC0"/>
</svg>
