<svg width="15" height="20" viewBox="0 0 15 20" fill="none" xmlns="http://www.w3.org/2000/svg">
<path fill-rule="evenodd" clip-rule="evenodd" d="M15 18.8889C15 19.5022 14.5211 20 13.9286 20C13.3361 20 12.8571 19.5022 12.8571 18.8889C12.8571 15.8256 10.4539 13.3333 7.5 13.3333C4.54607 13.3333 2.14286 15.8256 2.14286 18.8889C2.14286 19.5022 1.66393 20 1.07143 20C0.478929 20 0 19.5022 0 18.8889C0 14.6 3.36536 11.1111 7.5 11.1111C11.6346 11.1111 15 14.6 15 18.8889ZM7.5 2.22222C8.68179 2.22222 9.64286 3.21889 9.64286 4.44444C9.64286 5.67 8.68179 6.66667 7.5 6.66667C6.31821 6.66667 5.35714 5.67 5.35714 4.44444C5.35714 3.21889 6.31821 2.22222 7.5 2.22222ZM7.5 8.88889C9.86357 8.88889 11.7857 6.89556 11.7857 4.44444C11.7857 1.99333 9.86357 0 7.5 0C5.13643 0 3.21429 1.99333 3.21429 4.44444C3.21429 6.89556 5.13643 8.88889 7.5 8.88889Z" fill="#898989"/>
</svg>
