<svg width="15" height="15" viewBox="0 0 15 15" fill="none" xmlns="http://www.w3.org/2000/svg">
<path fill-rule="evenodd" clip-rule="evenodd" d="M10.5594 9.33726H9.91574L9.68761 9.11728C10.4861 8.18847 10.9668 6.98263 10.9668 5.67088C10.9668 2.74593 8.59584 0.375 5.67088 0.375C2.74593 0.375 0.375 2.74593 0.375 5.67088C0.375 8.59584 2.74593 10.9668 5.67088 10.9668C6.98263 10.9668 8.18847 10.4861 9.11728 9.68761L9.33726 9.91574V10.5594L13.411 14.625L14.625 13.411L10.5594 9.33726ZM5.67048 9.3371C3.64175 9.3371 2.0041 7.69945 2.0041 5.67071C2.0041 3.64198 3.64175 2.00433 5.67048 2.00433C7.69921 2.00433 9.33686 3.64198 9.33686 5.67071C9.33686 7.69945 7.69921 9.3371 5.67048 9.3371Z" fill="#898989"/>
</svg>
