<svg width="391" height="45" viewBox="0 0 391 45" fill="none" xmlns="http://www.w3.org/2000/svg">
<circle cx="22.5" cy="22.5" r="22.5" fill="#1F7411"/>
<path fill-rule="evenodd" clip-rule="evenodd" d="M20.8633 28.0001C20.5873 28.0001 20.3233 27.8861 20.1343 27.6851L15.2713 22.5061C14.8923 22.1041 14.9133 21.4711 15.3153 21.0931C15.7183 20.7151 16.3513 20.7351 16.7283 21.1371L20.8533 25.5281L29.2613 16.3261C29.6353 15.9171 30.2673 15.8901 30.6753 16.2621C31.0823 16.6341 31.1103 17.2671 30.7383 17.6741L21.6013 27.6741C21.4143 27.8801 21.1483 27.9981 20.8703 28.0001H20.8633Z" fill="white"/>
<line x1="45" y1="22" x2="173" y2="22" stroke="#027CC0" stroke-opacity="0.62"/>
<circle cx="195.5" cy="22.5" r="22.5" fill="#1F7411"/>
<path fill-rule="evenodd" clip-rule="evenodd" d="M193.863 28.0001C193.587 28.0001 193.323 27.8861 193.134 27.6851L188.271 22.5061C187.892 22.1041 187.913 21.4711 188.315 21.0931C188.718 20.7151 189.351 20.7351 189.728 21.1371L193.853 25.5281L202.261 16.3261C202.635 15.9171 203.267 15.8901 203.675 16.2621C204.082 16.6341 204.11 17.2671 203.738 17.6741L194.601 27.6741C194.414 27.8801 194.148 27.9981 193.87 28.0001H193.863Z" fill="white"/>
<line x1="218" y1="22" x2="346" y2="22" stroke="#027CC0" stroke-opacity="0.62"/>
<circle cx="368.5" cy="22.5" r="22.5" fill="#027CC0"/>
<path d="M368.136 28.1591C367.386 28.1591 366.718 28.0303 366.131 27.7727C365.547 27.5152 365.083 27.1572 364.739 26.6989C364.398 26.2367 364.212 25.7008 364.182 25.0909H365.614C365.644 25.4659 365.773 25.7898 366 26.0625C366.227 26.3314 366.525 26.5398 366.892 26.6875C367.259 26.8352 367.667 26.9091 368.114 26.9091C368.614 26.9091 369.057 26.822 369.443 26.6477C369.83 26.4735 370.133 26.2311 370.352 25.9205C370.572 25.6098 370.682 25.25 370.682 24.8409C370.682 24.4129 370.576 24.036 370.364 23.7102C370.152 23.3807 369.841 23.1231 369.432 22.9375C369.023 22.7519 368.523 22.6591 367.932 22.6591H367V21.4091H367.932C368.394 21.4091 368.799 21.3258 369.148 21.1591C369.5 20.9924 369.775 20.7576 369.972 20.4545C370.172 20.1515 370.273 19.7955 370.273 19.3864C370.273 18.9924 370.186 18.6496 370.011 18.358C369.837 18.0663 369.591 17.839 369.273 17.6761C368.958 17.5133 368.587 17.4318 368.159 17.4318C367.758 17.4318 367.379 17.5057 367.023 17.6534C366.67 17.7973 366.383 18.0076 366.159 18.2841C365.936 18.5568 365.814 18.8864 365.795 19.2727H364.432C364.455 18.6629 364.638 18.1288 364.983 17.6705C365.328 17.2083 365.778 16.8485 366.335 16.5909C366.896 16.3333 367.511 16.2045 368.182 16.2045C368.902 16.2045 369.519 16.3504 370.034 16.642C370.549 16.9299 370.945 17.3106 371.222 17.7841C371.498 18.2576 371.636 18.7689 371.636 19.3182C371.636 19.9735 371.464 20.5322 371.119 20.9943C370.778 21.4564 370.314 21.7765 369.727 21.9545V22.0455C370.462 22.1667 371.036 22.4792 371.449 22.983C371.862 23.483 372.068 24.1023 372.068 24.8409C372.068 25.4735 371.896 26.0417 371.551 26.5455C371.21 27.0455 370.744 27.4394 370.153 27.7273C369.563 28.0152 368.89 28.1591 368.136 28.1591Z" fill="white"/>
</svg>
