<svg width="391" height="45" viewBox="0 0 391 45" fill="none" xmlns="http://www.w3.org/2000/svg">
<circle cx="22.5" cy="22.5" r="22.5" fill="#027CC0"/>
<circle cx="195.5" cy="22.5" r="22.5" fill="#027CC0" fill-opacity="0.37"/>
<circle cx="368.5" cy="22.5" r="22.5" fill="#027CC0" fill-opacity="0.37"/>
<line x1="45" y1="21.5" x2="173" y2="21.5" stroke="#027CC0" stroke-opacity="0.62"/>
<line x1="218" y1="21.5" x2="346" y2="21.5" stroke="#027CC0" stroke-opacity="0.62"/>
<path d="M22.767 16.3636V28H20.6591V18.4148H20.5909L17.8693 20.1534V18.2216L20.7614 16.3636H22.767Z" fill="#FDFDFD"/>
<path d="M191.205 28V26.9773L195.045 22.7727C195.496 22.2803 195.867 21.8523 196.159 21.4886C196.451 21.1212 196.667 20.7765 196.807 20.4545C196.951 20.1288 197.023 19.7879 197.023 19.4318C197.023 19.0227 196.924 18.6686 196.727 18.3693C196.534 18.0701 196.269 17.839 195.932 17.6761C195.595 17.5133 195.216 17.4318 194.795 17.4318C194.348 17.4318 193.958 17.5246 193.625 17.7102C193.295 17.892 193.04 18.1477 192.858 18.4773C192.68 18.8068 192.591 19.1932 192.591 19.6364H191.25C191.25 18.9545 191.407 18.3561 191.722 17.8409C192.036 17.3258 192.464 16.9242 193.006 16.6364C193.551 16.3485 194.163 16.2045 194.841 16.2045C195.523 16.2045 196.127 16.3485 196.653 16.6364C197.18 16.9242 197.593 17.3125 197.892 17.8011C198.191 18.2898 198.341 18.8333 198.341 19.4318C198.341 19.8598 198.263 20.2784 198.108 20.6875C197.956 21.0928 197.691 21.5455 197.312 22.0455C196.938 22.5417 196.417 23.1477 195.75 23.8636L193.136 26.6591V26.75H198.545V28H191.205Z" fill="#FDFDFD"/>
<path d="M368.136 28.1591C367.386 28.1591 366.718 28.0303 366.131 27.7727C365.547 27.5152 365.083 27.1572 364.739 26.6989C364.398 26.2367 364.212 25.7008 364.182 25.0909H365.614C365.644 25.4659 365.773 25.7898 366 26.0625C366.227 26.3314 366.525 26.5398 366.892 26.6875C367.259 26.8352 367.667 26.9091 368.114 26.9091C368.614 26.9091 369.057 26.822 369.443 26.6477C369.83 26.4735 370.133 26.2311 370.352 25.9205C370.572 25.6098 370.682 25.25 370.682 24.8409C370.682 24.4129 370.576 24.036 370.364 23.7102C370.152 23.3807 369.841 23.1231 369.432 22.9375C369.023 22.7519 368.523 22.6591 367.932 22.6591H367V21.4091H367.932C368.394 21.4091 368.799 21.3258 369.148 21.1591C369.5 20.9924 369.775 20.7576 369.972 20.4545C370.172 20.1515 370.273 19.7955 370.273 19.3864C370.273 18.9924 370.186 18.6496 370.011 18.358C369.837 18.0663 369.591 17.839 369.273 17.6761C368.958 17.5133 368.587 17.4318 368.159 17.4318C367.758 17.4318 367.379 17.5057 367.023 17.6534C366.67 17.7973 366.383 18.0076 366.159 18.2841C365.936 18.5568 365.814 18.8864 365.795 19.2727H364.432C364.455 18.6629 364.638 18.1288 364.983 17.6705C365.328 17.2083 365.778 16.8485 366.335 16.5909C366.896 16.3333 367.511 16.2045 368.182 16.2045C368.902 16.2045 369.519 16.3504 370.034 16.642C370.549 16.9299 370.945 17.3106 371.222 17.7841C371.498 18.2576 371.636 18.7689 371.636 19.3182C371.636 19.9735 371.464 20.5322 371.119 20.9943C370.778 21.4564 370.314 21.7765 369.727 21.9545V22.0455C370.462 22.1667 371.036 22.4792 371.449 22.983C371.862 23.483 372.068 24.1023 372.068 24.8409C372.068 25.4735 371.896 26.0417 371.551 26.5455C371.21 27.0455 370.744 27.4394 370.153 27.7273C369.563 28.0152 368.89 28.1591 368.136 28.1591Z" fill="#FDFDFD"/>
</svg>
