<svg width="63" height="61" viewBox="0 0 63 61" fill="none" xmlns="http://www.w3.org/2000/svg">
<g opacity="0.88">
<path d="M50.7022 5.30176C52.8416 7.25721 60.9557 15.1847 61.2687 27.0232C61.6601 41.9269 49.5542 58.6011 31.5781 58.6011C13.5498 58.6011 1.57436 41.8212 1.88744 27.0232C2.12225 15.634 9.61014 7.83856 11.8278 5.69813C9.37532 7.70644 4.18338 12.5422 1.86135 20.5226C1.86135 20.5226 0.713379 24.7506 0.713379 29.0315C0.713379 46.4192 14.5412 60.5302 31.5781 60.5302C48.615 60.5302 62.4428 46.4192 62.4428 29.0315C62.4428 24.777 61.2948 20.549 61.2948 20.549C58.8684 12.2251 53.233 7.28364 50.7022 5.30176Z" fill="#1D71B8"/>
</g>
<path d="M32.2825 40.5791C31.9172 40.8434 31.3954 41.2662 30.9519 41.9268C30.0909 43.1688 29.0995 45.7056 30.3518 47.0004C31.0563 47.7403 32.3347 47.8988 33.3261 47.5289C34.3175 47.1589 34.9437 46.3133 35.1785 45.547C35.6742 43.9351 34.5524 41.7947 32.2825 40.5791Z" fill="#1D71B8"/>
<path d="M40.605 27.9221C40.605 22.9542 36.6132 18.9111 31.7083 18.9111C26.8033 18.9111 22.8115 22.9542 22.8115 27.9221C22.8115 32.89 26.8033 36.933 31.7083 36.933C36.6132 36.933 40.605 32.89 40.605 27.9221ZM37.1611 29.0584H32.8563V34.4491H32.6214H30.9256H30.6908V29.0584H26.3859V27.1558H30.6908V21.765H30.9256H32.6214H32.8563V27.1558H37.1611V29.0584Z" fill="#1D71B8"/>
<path d="M31.7084 0.360352C16.5761 0.360352 4.2876 12.8066 4.2876 28.1331C4.2876 43.4596 16.5761 55.9058 31.7084 55.9058C46.8407 55.9058 59.1292 43.4596 59.1292 28.1331C59.1292 12.8066 46.8407 0.360352 31.7084 0.360352ZM42.0401 9.08062C42.4054 9.08062 42.7185 9.39772 42.7185 9.76767C42.7185 10.1376 42.4054 10.4547 42.0401 10.4547C41.6749 10.4547 41.3618 10.1376 41.3618 9.76767C41.3618 9.39772 41.6749 9.08062 42.0401 9.08062ZM21.8724 9.08062C22.2116 9.08062 22.4725 9.3713 22.4725 9.6884C22.4725 10.0319 22.1855 10.2962 21.8724 10.2962C21.5332 10.2962 21.2723 10.0055 21.2723 9.6884C21.2723 9.3713 21.5332 9.08062 21.8724 9.08062ZM11.7494 27.0232C12.3756 27.0232 12.8713 27.5253 12.8713 28.1595C12.8713 28.7937 12.3756 29.2958 11.7494 29.2958C11.1232 29.2958 10.6275 28.7937 10.6275 28.1595C10.6275 27.5253 11.1232 27.0232 11.7494 27.0232ZM40.1616 46.4721C39.7703 46.5249 39.3006 46.1814 39.2224 45.6265C37.5004 44.226 35.7785 42.799 34.0565 41.3985C35.4132 42.7197 36.0133 44.3845 35.5958 45.7058C35.4393 46.1814 35.0479 46.9213 34.2913 47.4762C33.3782 48.1369 32.4128 48.1369 32.0997 48.1369C31.7345 48.1104 30.717 48.084 30.0125 47.3177C29.6734 46.9213 29.5168 46.5249 29.4646 46.3135C28.8907 44.4638 30.2995 42.2441 30.5343 41.9006C29.5429 42.9576 28.0819 44.2788 26.099 45.4415C24.4292 46.4457 22.8638 47.0534 21.6115 47.4234C21.5854 47.4762 21.4289 47.7933 21.1158 47.899C20.6201 48.0312 20.0983 47.5291 20.1243 47.2648C20.1504 47.0006 20.7244 46.7892 21.481 46.7892C23.0986 46.4192 26.099 45.4944 28.8646 42.9047C30.1952 41.6363 31.1083 40.3415 31.7084 39.2845C31.7084 39.2845 31.7084 39.2845 31.6823 39.2845C28.2906 39.2845 25.238 37.7518 23.1769 35.3471L11.9581 43.1954L10.8623 41.5835L22.0289 33.7352C21.0114 32.0176 20.4374 30.0357 20.4374 27.8953C20.4374 23.0859 23.3856 18.99 27.534 17.3252C27.3252 17.1667 27.1165 16.9553 26.96 16.7175C26.5425 16.0568 26.5425 15.2112 26.9078 14.4978L25.3946 13.0444C23.8292 11.5382 23.777 9.0542 25.2641 7.46869C26.7513 5.88319 29.2037 5.83034 30.7691 7.33657L31.1083 7.65367C32.5433 6.54382 34.5522 6.64952 35.8828 7.8915L38.0222 9.95265C38.4397 10.349 38.6223 10.9568 38.5179 11.5117C38.9876 12.0138 38.9615 12.8066 38.4658 13.2558C37.97 13.7314 37.1873 13.705 36.7438 13.2029C36.2742 12.7009 36.3003 11.9081 36.796 11.4589C36.9786 11.3003 37.1873 11.1946 37.4222 11.1418C37.3961 11.0097 37.3439 10.8775 37.2395 10.7718L35.1001 8.71067C34.0826 7.73294 32.465 7.7858 31.4997 8.81637C30.5343 9.84695 30.5865 11.4853 31.604 12.463L33.7434 14.5242C33.8217 14.6035 33.9522 14.6563 34.0565 14.6827C34.1609 13.9957 34.8131 13.5465 35.4654 13.6522C36.1437 13.7579 36.5873 14.4185 36.4829 15.0791C36.3785 15.7662 35.7263 16.2154 35.074 16.1097C34.8392 16.0568 34.6305 15.9511 34.4479 15.7926C33.9261 15.8983 33.3782 15.7133 32.9607 15.3434L30.8213 13.2822C29.5168 12.0138 29.3081 9.97908 30.3256 8.47285L29.9864 8.15575C28.8907 7.09874 27.1165 7.12517 26.0729 8.26145C25.0293 9.3713 25.0554 11.1418 26.1773 12.2252L27.6905 13.6786C28.708 13.0444 30.0647 13.3615 30.6909 14.4185C31.1083 15.1055 31.1083 15.9247 30.7691 16.5853C30.9257 16.5853 31.0822 16.5589 31.2388 16.5589C31.3692 16.5589 31.4997 16.5589 31.6562 16.5589C31.7867 16.5589 31.891 16.5589 31.9693 16.5589C38.0222 16.7439 42.875 21.7647 42.875 27.9217C42.875 33.9995 38.1788 38.9409 32.2563 39.2845C32.465 39.4695 32.6737 39.6544 32.8564 39.8658C35.0219 41.8741 37.2395 43.6182 39.4833 45.1508C40.2138 45.1773 40.6573 45.6001 40.6573 45.9436C40.7095 46.1814 40.4486 46.4457 40.1616 46.4721ZM46.3972 42.0855C44.0491 42.0855 42.1184 40.1565 42.1184 37.7518C42.1184 35.3736 44.023 33.4181 46.3972 33.4181C48.7453 33.4181 50.676 35.3471 50.676 37.7518C50.676 40.1301 48.7714 42.0855 46.3972 42.0855ZM53.4415 29.1637C52.8154 29.1637 52.2936 28.6352 52.2936 28.001C52.2936 27.3668 52.8154 26.8383 53.4415 26.8383C54.0677 26.8383 54.5895 27.3668 54.5895 28.001C54.5895 28.6352 54.0938 29.1637 53.4415 29.1637Z" fill="#1D71B8"/>
<path d="M46.3972 34.4482C44.597 34.4482 43.1099 35.928 43.1099 37.7778C43.1099 39.6011 44.5709 41.1074 46.3972 41.1074C48.2235 41.1074 49.6846 39.6276 49.6846 37.7778C49.6846 35.928 48.2235 34.4482 46.3972 34.4482ZM44.9362 38.8877C44.9101 39.1255 44.9101 39.3105 44.9101 39.4162C44.7535 39.3369 44.3622 39.1783 44.1013 38.7555C43.6578 38.0685 43.8926 37.3286 43.9448 37.17C43.9708 37.0643 44.2839 36.0866 44.8579 36.0602C45.3014 36.0602 45.7711 36.6415 45.7711 37.17C45.745 37.7778 45.0666 37.9892 44.9362 38.8877Z" fill="#1D71B8"/>
<path d="M30.0125 17.4306C30.3517 17.2192 30.6126 16.9021 30.7952 16.5586C29.6734 16.6379 28.5776 16.9021 27.5601 17.3249C28.2645 17.8534 29.2298 17.9327 30.0125 17.4306Z" fill="#1D71B8"/>
</svg>
