<svg width="94" height="92" viewBox="0 0 94 92" fill="none" xmlns="http://www.w3.org/2000/svg">
<g opacity="0.88">
<path d="M75.7659 7.97363C79.0015 10.931 91.273 22.9205 91.7466 40.8247C92.3384 63.3649 74.0297 88.5828 46.8429 88.5828C19.5771 88.5828 1.4657 63.2051 1.9392 40.8247C2.29433 23.5999 13.6189 11.8103 16.9729 8.57311C13.2638 11.6104 5.41154 18.924 1.89974 30.9934C1.89974 30.9934 0.163574 37.3878 0.163574 43.8621C0.163574 70.159 21.0765 91.5002 46.8429 91.5002C72.6092 91.5002 93.5222 70.159 93.5222 43.8621C93.5222 37.4277 91.786 31.0334 91.786 31.0334C88.1164 18.4444 79.5934 10.971 75.7659 7.97363Z" fill="white"/>
</g>
<path d="M47.9079 61.3262C47.3555 61.7258 46.5663 62.3653 45.8955 63.3644C44.5934 65.2427 43.094 69.0794 44.988 71.0376C46.0533 72.1566 47.9868 72.3964 49.4862 71.8369C50.9856 71.2774 51.9327 69.9985 52.2878 68.8396C53.0375 66.4017 51.3408 63.1646 47.9079 61.3262Z" fill="white"/>
<path d="M60.4956 42.1827C60.4956 34.6693 54.4585 28.5547 47.0403 28.5547C39.6221 28.5547 33.585 34.6693 33.585 42.1827C33.585 49.6961 39.6221 55.8107 47.0403 55.8107C54.4585 55.8107 60.4956 49.6961 60.4956 42.1827ZM55.2871 43.9012H48.7765V52.054H48.4213H45.8565H45.5014V43.9012H38.9908V41.0237H45.5014V32.8709H45.8565H48.4213H48.7765V41.0237H55.2871V43.9012Z" fill="white"/>
<path d="M47.0401 0.5C24.1542 0.5 5.56934 19.3234 5.56934 42.5031C5.56934 65.6827 24.1542 84.5061 47.0401 84.5061C69.926 84.5061 88.5109 65.6827 88.5109 42.5031C88.5109 19.3234 69.926 0.5 47.0401 0.5ZM62.6657 13.6884C63.2181 13.6884 63.6916 14.168 63.6916 14.7275C63.6916 15.287 63.2181 15.7666 62.6657 15.7666C62.1132 15.7666 61.6397 15.287 61.6397 14.7275C61.6397 14.168 62.1132 13.6884 62.6657 13.6884ZM32.1643 13.6884C32.6773 13.6884 33.0719 14.128 33.0719 14.6076C33.0719 15.1271 32.6378 15.5268 32.1643 15.5268C31.6513 15.5268 31.2568 15.0872 31.2568 14.6076C31.2568 14.128 31.6513 13.6884 32.1643 13.6884ZM16.8544 40.8245C17.8014 40.8245 18.5512 41.5839 18.5512 42.543C18.5512 43.5022 17.8014 44.2615 16.8544 44.2615C15.9074 44.2615 15.1577 43.5022 15.1577 42.543C15.1577 41.5839 15.9074 40.8245 16.8544 40.8245ZM59.8247 70.2387C59.2328 70.3186 58.5225 69.7991 58.4041 68.9598C55.7999 66.8417 53.1956 64.6836 50.5914 62.5654C52.6432 64.5637 53.5508 67.0815 52.9194 69.0797C52.6827 69.7991 52.0908 70.9181 50.9465 71.7573C49.5655 72.7565 48.1055 72.7565 47.632 72.7565C47.0796 72.7165 45.5407 72.6765 44.4753 71.5176C43.9624 70.9181 43.7256 70.3186 43.6467 69.9989C42.7786 67.2014 44.9094 63.8443 45.2645 63.3248C43.7651 64.9234 41.5554 66.9216 38.5566 68.6801C36.0312 70.1987 33.6637 71.1179 31.7697 71.6774C31.7303 71.7573 31.4935 72.2369 31.02 72.3968C30.2703 72.5966 29.4811 71.8373 29.5206 71.4376C29.5601 71.038 30.4281 70.7183 31.5724 70.7183C34.0189 70.1588 38.5566 68.76 42.7392 64.8434C44.7515 62.9251 46.1326 60.9668 47.0401 59.3682C47.0401 59.3682 47.0401 59.3682 47.0007 59.3682C41.8711 59.3682 37.2544 57.0503 34.1372 53.4135L17.1701 65.283L15.5129 62.8452L32.4011 50.9756C30.8622 48.3779 29.9941 45.3805 29.9941 42.1434C29.9941 34.8698 34.4529 28.6752 40.7268 26.1574C40.4111 25.9177 40.0954 25.5979 39.8587 25.2382C39.2274 24.2391 39.2274 22.9603 39.7798 21.8812L37.4912 19.6831C35.1237 17.4051 35.0448 13.6484 37.2939 11.2505C39.543 8.85266 43.2521 8.77273 45.6196 11.0507L46.1326 11.5303C48.3028 9.85178 51.3411 10.0116 53.3535 11.89L56.5891 15.0072C57.2204 15.6067 57.4966 16.5259 57.3388 17.3652C58.049 18.1245 58.0096 19.3235 57.2599 20.0029C56.5101 20.7222 55.3264 20.6823 54.6556 19.9229C53.9453 19.1636 53.9848 17.9646 54.7345 17.2852C55.0107 17.0455 55.3264 16.8856 55.6815 16.8057C55.6421 16.6058 55.5631 16.406 55.4053 16.2462L52.1697 13.1289C50.6308 11.6502 48.1844 11.7301 46.7245 13.2888C45.2645 14.8474 45.3434 17.3252 46.8823 18.8039L50.1179 21.9212C50.2363 22.0411 50.4335 22.121 50.5914 22.161C50.7492 21.1219 51.7357 20.4425 52.7221 20.6023C53.7481 20.7622 54.4189 21.7613 54.261 22.7604C54.1032 23.7995 53.1167 24.4789 52.1303 24.3191C51.7751 24.2391 51.4595 24.0793 51.1833 23.8395C50.3941 23.9993 49.5655 23.7196 48.9341 23.1601L45.6985 20.0428C43.7256 18.1245 43.41 15.0472 44.9488 12.7692L44.4359 12.2896C42.7786 10.691 40.0954 10.731 38.5171 12.4495C36.9388 14.128 36.9782 16.8057 38.6749 18.4442L40.9635 20.6423C42.5024 19.6831 44.5542 20.1627 45.5013 21.7613C46.1326 22.8004 46.1326 24.0393 45.6196 25.0384C45.8564 25.0384 46.0931 24.9985 46.3299 24.9985C46.5272 24.9985 46.7245 24.9985 46.9612 24.9985C47.1585 24.9985 47.3163 24.9985 47.4347 24.9985C56.5891 25.2782 63.9283 32.8715 63.9283 42.1834C63.9283 51.3753 56.8258 58.8487 47.8688 59.3682C48.1844 59.648 48.5001 59.9277 48.7763 60.2475C52.0513 63.2848 55.4053 65.9225 58.7987 68.2404C59.9036 68.2804 60.5744 68.9198 60.5744 69.4394C60.6533 69.7991 60.2587 70.1987 59.8247 70.2387ZM69.2552 63.6045C65.704 63.6045 62.784 60.6871 62.784 57.0503C62.784 53.4534 65.6645 50.496 69.2552 50.496C72.8065 50.496 75.7264 53.4135 75.7264 57.0503C75.7264 60.6471 72.8459 63.6045 69.2552 63.6045ZM79.909 44.0617C78.962 44.0617 78.1728 43.2624 78.1728 42.3032C78.1728 41.3441 78.962 40.5448 79.909 40.5448C80.856 40.5448 81.6451 41.3441 81.6451 42.3032C81.6451 43.2624 80.8954 44.0617 79.909 44.0617Z" fill="white"/>
<path d="M69.2555 52.0547C66.5328 52.0547 64.2837 54.2927 64.2837 57.0903C64.2837 59.8478 66.4934 62.1258 69.2555 62.1258C72.0175 62.1258 74.2272 59.8878 74.2272 57.0903C74.2272 54.2927 72.0175 52.0547 69.2555 52.0547ZM67.0458 58.7688C67.0063 59.1285 67.0063 59.4082 67.0063 59.5681C66.7696 59.4482 66.1777 59.2084 65.7831 58.569C65.1123 57.5299 65.4674 56.4109 65.5464 56.1711C65.5858 56.0112 66.0593 54.5325 66.9274 54.4925C67.5982 54.4925 68.3085 55.3718 68.3085 56.1711C68.269 57.0903 67.2431 57.41 67.0458 58.7688Z" fill="white"/>
<path d="M44.4757 26.3169C44.9886 25.9972 45.3832 25.5176 45.6594 24.998C43.9627 25.1179 42.3055 25.5176 40.7666 26.157C41.832 26.9563 43.2919 27.0762 44.4757 26.3169Z" fill="white"/>
</svg>
